<svg xmlns="http://www.w3.org/2000/svg" width="24" height="24" viewBox="0 0 24 24">
    <path d="M6.1,24C4.4,24,3,22.6,3,20.9V6h18v14.9c0,1.7-1.4,3.1-3.1,3.1H6.1z M21.3,5H2.7C2.3,5,2,4.7,2,4.3V3.7
        C2,3.3,2.3,3,2.7,3H8V1.5C8,0.7,8.7,0,9.5,0h5C15.3,0,16,0.7,16,1.5V3h5.3C21.7,3,22,3.3,22,3.7v0.5C22,4.7,21.7,5,21.3,5z M10,3h4
        V2h-4V3z M10,9.9c0-0.6-0.6-1-1.3-1c-0.7,0-1.3,0.4-1.3,1v9c0,0.6,0.6,1,1.3,1c0.7,0,1.3-0.4,1.3-1V9.9z M16.6,9.9
        c0-0.6-0.6-1-1.3-1c-0.7,0-1.3,0.4-1.3,1v9c0,0.6,0.6,1,1.3,1c0.7,0,1.3-0.4,1.3-1V9.9z"/>
</svg>
